<svg width="494" height="186" viewBox="0 0 494 186" fill="none" xmlns="http://www.w3.org/2000/svg">
<g filter="url(#filter0_dd_410_129)">
<path d="M57.1726 139.929L39.5577 150.099L47.6577 164.128L40.487 168.268L16.847 127.323L41.6326 113.013C44.9062 111.123 49.1602 112.131 51.1402 115.56L59.7202 130.421C61.7002 133.851 60.4462 138.039 57.1726 139.929ZM51.7695 133.21L44.7495 121.051C44.4495 120.532 43.7938 120.356 43.2742 120.656L27.7377 129.626L35.8377 143.655L51.3742 134.685C51.8938 134.385 52.0695 133.73 51.7695 133.21ZM111.621 127.199L88.2388 140.699C84.9652 142.589 80.7113 141.581 78.7313 138.151L62.0513 109.261C60.0713 105.831 61.3252 101.643 64.5988 99.7531L87.9815 86.2531C91.2551 84.3631 95.509 85.3712 97.489 88.8006L114.169 117.691C116.149 121.121 114.895 125.309 111.621 127.199ZM106.218 120.48L91.0983 94.2916C90.7983 93.772 90.1427 93.5963 89.623 93.8963L70.3973 104.996C69.8777 105.296 69.702 105.952 70.002 106.472L85.122 132.66C85.422 133.18 86.0777 133.356 86.5973 133.056L105.823 121.956C106.343 121.656 106.518 121 106.218 120.48ZM163.625 97.1746L153.492 103.025L117.093 79.6993C119.343 83.5964 122.949 89.4819 125.199 93.3791L136.449 112.865L129.278 117.005L105.638 76.0589L115.771 70.2089L151.144 92.1174L132.814 60.3689L139.985 56.2289L163.625 97.1746ZM204.883 73.3542L181.5 86.8542C178.227 88.7442 173.973 87.7361 171.993 84.3066L155.313 55.416C153.333 51.9866 154.587 47.7985 157.86 45.9085L181.243 32.4085C184.517 30.5185 188.771 31.5266 190.751 34.956L194.981 42.2826L187.81 46.4226L184.36 40.447C184.06 39.9274 183.404 39.7517 182.885 40.0517L163.659 51.1517C163.139 51.4517 162.964 52.1074 163.264 52.627L178.384 78.8156C178.684 79.3352 179.339 79.5109 179.859 79.2109L199.085 68.1109C199.604 67.8109 199.78 67.1552 199.48 66.6356L193.63 56.5031L183.238 62.5031L179.518 56.0599L197.081 45.9199L207.431 63.8466C209.411 67.2761 208.157 71.4642 204.883 73.3542ZM223.14 50.2736L217.736 53.3936C215.594 50.4039 210.067 42.5101 208.837 40.3797L197.287 20.3745L204.769 16.0545L216.319 36.0597C217.579 38.242 221.622 46.9239 223.14 50.2736ZM231.189 61.2149L223.187 65.8349L218.537 57.7809L226.539 53.1609L231.189 61.2149Z" fill="white"/>
</g>
<g filter="url(#filter1_dd_410_129)">
<path d="M180.76 139.929L163.145 150.099L171.245 164.128L164.075 168.268L140.435 127.323L165.22 113.013C168.494 111.123 172.748 112.131 174.728 115.56L183.308 130.421C185.288 133.851 184.034 138.039 180.76 139.929ZM175.357 133.21L168.337 121.051C168.037 120.532 167.382 120.356 166.862 120.656L151.325 129.626L159.425 143.655L174.962 134.685C175.482 134.385 175.657 133.73 175.357 133.21ZM235.209 127.199L211.827 140.699C208.553 142.589 204.299 141.581 202.319 138.151L185.639 109.261C183.659 105.831 184.913 101.643 188.187 99.7531L211.569 86.2531C214.843 84.3631 219.097 85.3712 221.077 88.8006L237.757 117.691C239.737 121.121 238.483 125.309 235.209 127.199ZM229.806 120.48L214.686 94.2916C214.386 93.772 213.73 93.5963 213.211 93.8963L193.985 104.996C193.465 105.296 193.29 105.952 193.59 106.472L208.71 132.66C209.01 133.18 209.665 133.356 210.185 133.056L229.411 121.956C229.93 121.656 230.106 121 229.806 120.48ZM287.213 97.1746L277.08 103.025L240.681 79.6993C242.931 83.5964 246.537 89.4819 248.787 93.3791L260.037 112.865L252.866 117.005L229.226 76.0589L239.359 70.2089L274.732 92.1174L256.402 60.3689L263.573 56.2289L287.213 97.1746ZM328.471 73.3542L305.088 86.8542C301.815 88.7442 297.561 87.7361 295.581 84.3066L278.901 55.416C276.921 51.9866 278.175 47.7985 281.448 45.9085L304.831 32.4085C308.104 30.5185 312.358 31.5266 314.338 34.956L318.568 42.2826L311.398 46.4226L307.948 40.447C307.648 39.9274 306.992 39.7517 306.472 40.0517L287.247 51.1517C286.727 51.4517 286.551 52.1074 286.851 52.627L301.971 78.8156C302.271 79.3352 302.927 79.5109 303.447 79.2109L322.672 68.1109C323.192 67.8109 323.368 67.1552 323.068 66.6356L317.218 56.5031L306.825 62.5031L303.105 56.0599L320.668 45.9199L331.018 63.8466C332.998 67.2761 331.744 71.4642 328.471 73.3542ZM346.728 50.2736L341.324 53.3936C339.182 50.4039 333.654 42.5101 332.424 40.3797L320.874 20.3745L328.357 16.0545L339.907 36.0597C341.167 38.242 345.209 46.9239 346.728 50.2736ZM354.777 61.2149L346.775 65.8349L342.125 57.7809L350.127 53.1609L354.777 61.2149Z" fill="white"/>
</g>
<g filter="url(#filter2_dd_410_129)">
<path d="M304.348 139.929L286.733 150.099L294.833 164.128L287.663 168.268L264.023 127.323L288.808 113.013C292.082 111.123 296.336 112.131 298.316 115.56L306.896 130.421C308.876 133.851 307.622 138.039 304.348 139.929ZM298.945 133.21L291.925 121.051C291.625 120.532 290.969 120.356 290.45 120.656L274.913 129.626L283.013 143.655L298.55 134.685C299.069 134.385 299.245 133.73 298.945 133.21ZM358.797 127.199L335.414 140.699C332.141 142.589 327.887 141.581 325.907 138.151L309.227 109.261C307.247 105.831 308.501 101.643 311.774 99.7531L335.157 86.2531C338.431 84.3631 342.685 85.3712 344.665 88.8006L361.345 117.691C363.325 121.121 362.071 125.309 358.797 127.199ZM353.394 120.48L338.274 94.2916C337.974 93.772 337.318 93.5963 336.799 93.8963L317.573 104.996C317.053 105.296 316.878 105.952 317.178 106.472L332.298 132.66C332.598 133.18 333.253 133.356 333.773 133.056L352.999 121.956C353.518 121.656 353.694 121 353.394 120.48ZM410.8 97.1746L400.668 103.025L364.269 79.6993C366.519 83.5964 370.125 89.4819 372.375 93.3791L383.625 112.865L376.454 117.005L352.814 76.0589L362.946 70.2089L398.32 92.1174L379.99 60.3689L387.16 56.2289L410.8 97.1746ZM452.059 73.3542L428.676 86.8542C425.402 88.7442 421.148 87.7361 419.168 84.3066L402.488 55.416C400.508 51.9866 401.762 47.7985 405.036 45.9085L428.419 32.4085C431.692 30.5185 435.946 31.5266 437.926 34.956L442.156 42.2826L434.986 46.4226L431.536 40.447C431.236 39.9274 430.58 39.7517 430.06 40.0517L410.834 51.1517C410.315 51.4517 410.139 52.1074 410.439 52.627L425.559 78.8156C425.859 79.3352 426.515 79.5109 427.034 79.2109L446.26 68.1109C446.78 67.8109 446.956 67.1552 446.656 66.6356L440.806 56.5031L430.413 62.5031L426.693 56.0599L444.256 45.9199L454.606 63.8466C456.586 67.2761 455.332 71.4642 452.059 73.3542ZM470.315 50.2736L464.911 53.3936C462.77 50.4039 457.242 42.5101 456.012 40.3797L444.462 20.3745L451.945 16.0545L463.495 36.0597C464.755 38.242 468.797 46.9239 470.315 50.2736ZM478.364 61.2149L470.362 65.8349L465.712 57.7809L473.714 53.1609L478.364 61.2149Z" fill="white"/>
</g>
<defs>
<filter id="filter0_dd_410_129" x="0.64698" y="0.904419" width="245.542" height="184.65" filterUnits="userSpaceOnUse" color-interpolation-filters="sRGB">
<feFlood flood-opacity="0" result="BackgroundImageFix"/>
<feColorMatrix in="SourceAlpha" type="matrix" values="0 0 0 0 0 0 0 0 0 0 0 0 0 0 0 0 0 0 127 0" result="hardAlpha"/>
<feOffset/>
<feGaussianBlur stdDeviation="7.5"/>
<feComposite in2="hardAlpha" operator="out"/>
<feColorMatrix type="matrix" values="0 0 0 0 1 0 0 0 0 0.364706 0 0 0 0 0.517647 0 0 0 1 0"/>
<feBlend mode="normal" in2="BackgroundImageFix" result="effect1_dropShadow_410_129"/>
<feColorMatrix in="SourceAlpha" type="matrix" values="0 0 0 0 0 0 0 0 0 0 0 0 0 0 0 0 0 0 127 0" result="hardAlpha"/>
<feOffset/>
<feGaussianBlur stdDeviation="7.5"/>
<feComposite in2="hardAlpha" operator="out"/>
<feColorMatrix type="matrix" values="0 0 0 0 1 0 0 0 0 0.364706 0 0 0 0 0.517647 0 0 0 1 0"/>
<feBlend mode="normal" in2="effect1_dropShadow_410_129" result="effect2_dropShadow_410_129"/>
<feBlend mode="normal" in="SourceGraphic" in2="effect2_dropShadow_410_129" result="shape"/>
</filter>
<filter id="filter1_dd_410_129" x="124.235" y="0.904419" width="245.542" height="184.65" filterUnits="userSpaceOnUse" color-interpolation-filters="sRGB">
<feFlood flood-opacity="0" result="BackgroundImageFix"/>
<feColorMatrix in="SourceAlpha" type="matrix" values="0 0 0 0 0 0 0 0 0 0 0 0 0 0 0 0 0 0 127 0" result="hardAlpha"/>
<feOffset/>
<feGaussianBlur stdDeviation="7.5"/>
<feComposite in2="hardAlpha" operator="out"/>
<feColorMatrix type="matrix" values="0 0 0 0 1 0 0 0 0 0.819608 0 0 0 0 0.392157 0 0 0 1 0"/>
<feBlend mode="normal" in2="BackgroundImageFix" result="effect1_dropShadow_410_129"/>
<feColorMatrix in="SourceAlpha" type="matrix" values="0 0 0 0 0 0 0 0 0 0 0 0 0 0 0 0 0 0 127 0" result="hardAlpha"/>
<feOffset/>
<feGaussianBlur stdDeviation="7.5"/>
<feComposite in2="hardAlpha" operator="out"/>
<feColorMatrix type="matrix" values="0 0 0 0 1 0 0 0 0 0.819608 0 0 0 0 0.392157 0 0 0 1 0"/>
<feBlend mode="normal" in2="effect1_dropShadow_410_129" result="effect2_dropShadow_410_129"/>
<feBlend mode="normal" in="SourceGraphic" in2="effect2_dropShadow_410_129" result="shape"/>
</filter>
<filter id="filter2_dd_410_129" x="247.823" y="0.904419" width="245.542" height="184.65" filterUnits="userSpaceOnUse" color-interpolation-filters="sRGB">
<feFlood flood-opacity="0" result="BackgroundImageFix"/>
<feColorMatrix in="SourceAlpha" type="matrix" values="0 0 0 0 0 0 0 0 0 0 0 0 0 0 0 0 0 0 127 0" result="hardAlpha"/>
<feOffset/>
<feGaussianBlur stdDeviation="7.5"/>
<feComposite in2="hardAlpha" operator="out"/>
<feColorMatrix type="matrix" values="0 0 0 0 0.352941 0 0 0 0 0.843137 0 0 0 0 1 0 0 0 1 0"/>
<feBlend mode="normal" in2="BackgroundImageFix" result="effect1_dropShadow_410_129"/>
<feColorMatrix in="SourceAlpha" type="matrix" values="0 0 0 0 0 0 0 0 0 0 0 0 0 0 0 0 0 0 127 0" result="hardAlpha"/>
<feOffset/>
<feGaussianBlur stdDeviation="7.5"/>
<feComposite in2="hardAlpha" operator="out"/>
<feColorMatrix type="matrix" values="0 0 0 0 0.352941 0 0 0 0 0.843137 0 0 0 0 1 0 0 0 1 0"/>
<feBlend mode="normal" in2="effect1_dropShadow_410_129" result="effect2_dropShadow_410_129"/>
<feBlend mode="normal" in="SourceGraphic" in2="effect2_dropShadow_410_129" result="shape"/>
</filter>
</defs>
</svg>
