<svg width="40" height="36" viewBox="0 0 40 36" fill="none" xmlns="http://www.w3.org/2000/svg">
<path id="Vector" fill-rule="evenodd" clip-rule="evenodd" d="M40 18C40 18.6819 39.7366 19.3358 39.2679 19.818C38.7991 20.3001 38.1632 20.571 37.5003 20.571H8.53852L19.2723 31.6055C19.5047 31.8446 19.6891 32.1284 19.8149 32.4407C19.9407 32.753 20.0054 33.0877 20.0054 33.4258C20.0054 33.7638 19.9407 34.0986 19.8149 34.4109C19.6891 34.7232 19.5047 35.007 19.2723 35.246C19.0399 35.4851 18.764 35.6747 18.4603 35.8041C18.1567 35.9334 17.8312 36 17.5025 36C17.1738 36 16.8484 35.9334 16.5447 35.8041C16.241 35.6747 15.9651 35.4851 15.7327 35.246L0.734387 19.8202C0.501596 19.5814 0.316902 19.2977 0.190884 18.9854C0.0648658 18.673 0 18.3382 0 18C0 17.6618 0.0648658 17.327 0.190884 17.0146C0.316902 16.7023 0.501596 16.4186 0.734387 16.1798L15.7327 0.75397C16.2021 0.271212 16.8387 0 17.5025 0C18.1663 0 18.8029 0.271212 19.2723 0.75397C19.7417 1.23673 20.0054 1.89149 20.0054 2.57421C20.0054 3.25694 19.7417 3.9117 19.2723 4.39446L8.53852 15.429H37.5003C38.1632 15.429 38.7991 15.6999 39.2679 16.1821C39.7366 16.6642 40 17.3181 40 18Z" fill="white"/>
</svg>
