<svg width="90" height="90" viewBox="0 0 90 90" fill="none" xmlns="http://www.w3.org/2000/svg">
<g id="XCircle" clip-path="url(#clip0_569_50)">
<path id="Vector" d="M45 84.375C34.5571 84.375 24.5419 80.2266 17.1577 72.8423C9.77343 65.4581 5.625 55.4429 5.625 45C5.625 34.5571 9.77343 24.5419 17.1577 17.1577C24.5419 9.77343 34.5571 5.625 45 5.625C55.4429 5.625 65.4581 9.77343 72.8423 17.1577C80.2266 24.5419 84.375 34.5571 84.375 45C84.375 55.4429 80.2266 65.4581 72.8423 72.8423C65.4581 80.2266 55.4429 84.375 45 84.375ZM45 90C56.9347 90 68.3807 85.2589 76.8198 76.8198C85.2589 68.3807 90 56.9347 90 45C90 33.0653 85.2589 21.6193 76.8198 13.1802C68.3807 4.74106 56.9347 0 45 0C33.0653 0 21.6193 4.74106 13.1802 13.1802C4.74106 21.6193 0 33.0653 0 45C0 56.9347 4.74106 68.3807 13.1802 76.8198C21.6193 85.2589 33.0653 90 45 90Z" fill="white"/>
<path id="Vector_2" d="M26.1329 26.1338C26.3942 25.8719 26.7045 25.664 27.0462 25.5223C27.3879 25.3805 27.7542 25.3075 28.1242 25.3075C28.4941 25.3075 28.8604 25.3805 29.2021 25.5223C29.5438 25.664 29.8542 25.8719 30.1154 26.1338L44.9992 41.0231L59.8829 26.1338C60.1444 25.8723 60.4548 25.6648 60.7965 25.5233C61.1382 25.3818 61.5044 25.309 61.8742 25.309C62.244 25.309 62.6102 25.3818 62.9518 25.5233C63.2935 25.6648 63.6039 25.8723 63.8654 26.1338C64.1269 26.3953 64.3343 26.7057 64.4759 27.0474C64.6174 27.389 64.6902 27.7552 64.6902 28.125C64.6902 28.4948 64.6174 28.861 64.4759 29.2027C64.3343 29.5443 64.1269 29.8548 63.8654 30.1163L48.976 45L63.8654 59.8838C64.1269 60.1453 64.3343 60.4557 64.4759 60.7974C64.6174 61.139 64.6902 61.5052 64.6902 61.875C64.6902 62.2448 64.6174 62.611 64.4759 62.9527C64.3343 63.2943 64.1269 63.6048 63.8654 63.8663C63.6039 64.1278 63.2935 64.3352 62.9518 64.4767C62.6102 64.6182 62.244 64.6911 61.8742 64.6911C61.5044 64.6911 61.1382 64.6182 60.7965 64.4767C60.4548 64.3352 60.1444 64.1278 59.8829 63.8663L44.9992 48.9769L30.1154 63.8663C29.8539 64.1278 29.5435 64.3352 29.2018 64.4767C28.8602 64.6182 28.494 64.6911 28.1242 64.6911C27.7544 64.6911 27.3882 64.6182 27.0465 64.4767C26.7048 64.3352 26.3944 64.1278 26.1329 63.8663C25.8714 63.6048 25.664 63.2943 25.5225 62.9527C25.381 62.611 25.3081 62.2448 25.3081 61.875C25.3081 61.5052 25.381 61.139 25.5225 60.7974C25.664 60.4557 25.8714 60.1453 26.1329 59.8838L41.0223 45L26.1329 30.1163C25.871 29.855 25.6632 29.5447 25.5214 29.203C25.3796 28.8613 25.3066 28.495 25.3066 28.125C25.3066 27.7551 25.3796 27.3888 25.5214 27.0471C25.6632 26.7054 25.871 26.395 26.1329 26.1338Z" fill="white"/>
</g>
<defs>
<clipPath id="clip0_569_50">
<rect width="90" height="90" fill="white"/>
</clipPath>
</defs>
</svg>
