<svg width="40" height="40" viewBox="0 0 40 40" fill="none" xmlns="http://www.w3.org/2000/svg">
<g id="CheckSquare" clip-path="url(#clip0_522_1372)">
<path id="Vector" d="M35 2.5C35.663 2.5 36.2989 2.76339 36.7678 3.23223C37.2366 3.70107 37.5 4.33696 37.5 5V35C37.5 35.663 37.2366 36.2989 36.7678 36.7678C36.2989 37.2366 35.663 37.5 35 37.5H5C4.33696 37.5 3.70107 37.2366 3.23223 36.7678C2.76339 36.2989 2.5 35.663 2.5 35V5C2.5 4.33696 2.76339 3.70107 3.23223 3.23223C3.70107 2.76339 4.33696 2.5 5 2.5H35ZM5 0C3.67392 0 2.40215 0.526784 1.46447 1.46447C0.526784 2.40215 0 3.67392 0 5L0 35C0 36.3261 0.526784 37.5979 1.46447 38.5355C2.40215 39.4732 3.67392 40 5 40H35C36.3261 40 37.5979 39.4732 38.5355 38.5355C39.4732 37.5979 40 36.3261 40 35V5C40 3.67392 39.4732 2.40215 38.5355 1.46447C37.5979 0.526784 36.3261 0 35 0L5 0Z" fill="white"/>
<path id="Vector_2" d="M27.4247 12.4252C27.7745 12.0784 28.2469 11.8832 28.7395 11.8818C29.2321 11.8805 29.7055 12.0731 30.0573 12.4179C30.4091 12.7628 30.611 13.2323 30.6194 13.7249C30.6278 14.2175 30.442 14.6935 30.1022 15.0502L20.1222 27.5252C19.9506 27.71 19.7436 27.8582 19.5135 27.9611C19.2834 28.064 19.0348 28.1195 18.7828 28.1242C18.5307 28.1288 18.2803 28.0826 18.0466 27.9883C17.8128 27.894 17.6004 27.7535 17.4222 27.5752L10.8097 20.9602C10.6254 20.7886 10.4777 20.5816 10.3752 20.3516C10.2727 20.1216 10.2176 19.8733 10.2132 19.6215C10.2087 19.3698 10.2551 19.1197 10.3494 18.8862C10.4437 18.6527 10.584 18.4407 10.7621 18.2626C10.9401 18.0846 11.1522 17.9442 11.3857 17.8499C11.6191 17.7556 11.8692 17.7093 12.121 17.7137C12.3727 17.7182 12.621 17.7733 12.851 17.8758C13.081 17.9782 13.288 18.126 13.4597 18.3102L18.6947 23.5427L27.3772 12.4802L27.4247 12.4252Z" fill="white"/>
</g>
<defs>
<clipPath id="clip0_522_1372">
<rect width="40" height="40" fill="white"/>
</clipPath>
</defs>
</svg>
