<svg width="30" height="30" viewBox="0 0 30 30" fill="none" xmlns="http://www.w3.org/2000/svg">
<path d="M0.629407 0.629407C0.828416 0.429893 1.06483 0.271601 1.32511 0.163596C1.58539 0.0555924 1.86442 0 2.14622 0C2.42802 0 2.70705 0.0555924 2.96733 0.163596C3.22761 0.271601 3.46402 0.429893 3.66303 0.629407L15.0006 11.9712L26.3381 0.629407C26.5373 0.430216 26.7738 0.272209 27.034 0.164408C27.2943 0.0566064 27.5732 0.00112169 27.8549 0.00112169C28.1366 0.00112169 28.4155 0.0566064 28.6758 0.164408C28.9361 0.272209 29.1725 0.430216 29.3717 0.629407C29.5709 0.828597 29.7289 1.06507 29.8367 1.32533C29.9445 1.58558 30 1.86452 30 2.14622C30 2.42792 29.9445 2.70686 29.8367 2.96711C29.7289 3.22737 29.5709 3.46384 29.3717 3.66303L18.0299 15.0006L29.3717 26.3381C29.5709 26.5373 29.7289 26.7738 29.8367 27.034C29.9445 27.2943 30 27.5732 30 27.8549C30 28.1366 29.9445 28.4155 29.8367 28.6758C29.7289 28.9361 29.5709 29.1725 29.3717 29.3717C29.1725 29.5709 28.9361 29.7289 28.6758 29.8367C28.4155 29.9445 28.1366 30 27.8549 30C27.5732 30 27.2943 29.9445 27.034 29.8367C26.7738 29.7289 26.5373 29.5709 26.3381 29.3717L15.0006 18.0299L3.66303 29.3717C3.46384 29.5709 3.22737 29.7289 2.96711 29.8367C2.70686 29.9445 2.42792 30 2.14622 30C1.86452 30 1.58558 29.9445 1.32533 29.8367C1.06507 29.7289 0.828597 29.5709 0.629407 29.3717C0.430216 29.1725 0.272209 28.9361 0.164408 28.6758C0.0566064 28.4155 0.00112169 28.1366 0.00112169 27.8549C0.00112169 27.5732 0.0566064 27.2943 0.164408 27.034C0.272209 26.7738 0.430216 26.5373 0.629407 26.3381L11.9712 15.0006L0.629407 3.66303C0.429893 3.46402 0.271601 3.22761 0.163596 2.96733C0.0555924 2.70705 0 2.42802 0 2.14622C0 1.86442 0.0555924 1.58539 0.163596 1.32511C0.271601 1.06483 0.429893 0.828416 0.629407 0.629407Z" fill="white"/>
</svg>
