<svg width="58" height="46" viewBox="0 0 58 46" fill="none" xmlns="http://www.w3.org/2000/svg">
<g id="Vector" filter="url(#filter0_dd_521_999)">
<path fill-rule="evenodd" clip-rule="evenodd" d="M15.3163 15.3357C15.4164 15.2293 15.5352 15.1448 15.666 15.0872C15.7968 15.0296 15.9371 15 16.0787 15C16.2204 15 16.3606 15.0296 16.4914 15.0872C16.6222 15.1448 16.7411 15.2293 16.8411 15.3357L29.0003 28.2398L41.1595 15.3357C41.2596 15.2294 41.3784 15.1452 41.5092 15.0877C41.6401 15.0302 41.7803 15.0006 41.9218 15.0006C42.0634 15.0006 42.2036 15.0302 42.3344 15.0877C42.4652 15.1452 42.5841 15.2294 42.6842 15.3357C42.7843 15.4419 42.8637 15.568 42.9179 15.7068C42.9721 15.8456 43 15.9944 43 16.1446C43 16.2948 42.9721 16.4436 42.9179 16.5824C42.8637 16.7212 42.7843 16.8473 42.6842 16.9535L29.7627 30.6643C29.6626 30.7707 29.5438 30.8552 29.413 30.9128C29.2822 30.9704 29.1419 31 29.0003 31C28.8586 31 28.7184 30.9704 28.5876 30.9128C28.4568 30.8552 28.3379 30.7707 28.2379 30.6643L15.3163 16.9535C15.2161 16.8474 15.1365 16.7213 15.0822 16.5825C15.0279 16.4437 15 16.2949 15 16.1446C15 15.9943 15.0279 15.8455 15.0822 15.7067C15.1365 15.5679 15.2161 15.4418 15.3163 15.3357Z" fill="white"/>
</g>
<defs>
<filter id="filter0_dd_521_999" x="0" y="0" width="58" height="46" filterUnits="userSpaceOnUse" color-interpolation-filters="sRGB">
<feFlood flood-opacity="0" result="BackgroundImageFix"/>
<feColorMatrix in="SourceAlpha" type="matrix" values="0 0 0 0 0 0 0 0 0 0 0 0 0 0 0 0 0 0 127 0" result="hardAlpha"/>
<feOffset/>
<feGaussianBlur stdDeviation="7.5"/>
<feComposite in2="hardAlpha" operator="out"/>
<feColorMatrix type="matrix" values="0 0 0 0 1 0 0 0 0 1 0 0 0 0 1 0 0 0 1 0"/>
<feBlend mode="normal" in2="BackgroundImageFix" result="effect1_dropShadow_521_999"/>
<feColorMatrix in="SourceAlpha" type="matrix" values="0 0 0 0 0 0 0 0 0 0 0 0 0 0 0 0 0 0 127 0" result="hardAlpha"/>
<feOffset/>
<feGaussianBlur stdDeviation="7.5"/>
<feComposite in2="hardAlpha" operator="out"/>
<feColorMatrix type="matrix" values="0 0 0 0 1 0 0 0 0 1 0 0 0 0 1 0 0 0 1 0"/>
<feBlend mode="normal" in2="effect1_dropShadow_521_999" result="effect2_dropShadow_521_999"/>
<feBlend mode="normal" in="SourceGraphic" in2="effect2_dropShadow_521_999" result="shape"/>
</filter>
</defs>
</svg>
