<svg width="32" height="32" viewBox="0 0 32 32" fill="none" xmlns="http://www.w3.org/2000/svg">
<path id="Vector" d="M24.2906 0.293775C24.3834 0.200652 24.4938 0.12677 24.6153 0.0763592C24.7368 0.0259485 24.867 0 24.9985 0C25.13 0 25.2603 0.0259485 25.3818 0.0763592C25.5033 0.12677 25.6136 0.200652 25.7065 0.293775L31.7062 6.29351C31.7993 6.3864 31.8732 6.49675 31.9236 6.61823C31.9741 6.73972 32 6.86995 32 7.00148C32 7.13301 31.9741 7.26325 31.9236 7.38473C31.8732 7.50622 31.7993 7.61656 31.7062 7.70945L11.7071 27.7086C11.6111 27.8039 11.4968 27.8787 11.3711 27.9286L1.37155 31.9284C1.18983 32.0011 0.99076 32.0189 0.799016 31.9796C0.607272 31.9403 0.431288 31.8455 0.292881 31.7071C0.154474 31.5687 0.059731 31.3927 0.0203978 31.201C-0.0189354 31.0092 -0.00112914 30.8102 0.071609 30.6284L4.07143 20.6289C4.12129 20.5032 4.19613 20.3889 4.29142 20.2929L24.2906 0.293775ZM22.4126 5.00157L26.9984 9.58737L29.5843 7.00148L24.9985 2.41568L22.4126 5.00157ZM25.5845 11.0013L20.9987 6.41551L7.99926 19.4149V20.0009H8.99922C9.26442 20.0009 9.51877 20.1063 9.70629 20.2938C9.89382 20.4813 9.99917 20.7357 9.99917 21.0009V22.0008H10.9991C11.2643 22.0008 11.5187 22.1062 11.7062 22.2937C11.8937 22.4812 11.9991 22.7356 11.9991 23.0008V24.0007H12.5851L25.5845 11.0013ZM6.06335 21.3509L5.85136 21.5628L2.79549 29.2045L10.4372 26.1486L10.6491 25.9367C10.4584 25.8654 10.2939 25.7376 10.1778 25.5703C10.0616 25.4031 9.99933 25.2043 9.99917 25.0007V24.0007H8.99922C8.73401 24.0007 8.47967 23.8954 8.29214 23.7079C8.10461 23.5203 7.99926 23.266 7.99926 23.0008V22.0008H6.99931C6.79567 22.0007 6.59694 21.9384 6.42969 21.8222C6.26243 21.7061 6.13462 21.5416 6.06335 21.3509Z" fill="white"/>
</svg>
