<!DOCTYPE svg PUBLIC "-//W3C//DTD SVG 1.1//EN" "http://www.w3.org/Graphics/SVG/1.1/DTD/svg11.dtd">
<!-- Uploaded to: SVG Repo, www.svgrepo.com, Transformed by: SVG Repo Mixer Tools -->
<svg height="800px" width="800px" version="1.1" id="_x32_" xmlns="http://www.w3.org/2000/svg" xmlns:xlink="http://www.w3.org/1999/xlink" viewBox="0 0 512 512" xml:space="preserve" fill="#ffffff" stroke="#ffffff" transform="matrix(-1, 0, 0, 1, 0, 0)">
<g id="SVGRepo_bgCarrier" stroke-width="0"/>
<g id="SVGRepo_tracerCarrier" stroke-linecap="round" stroke-linejoin="round"/>
<g id="SVGRepo_iconCarrier"> <style type="text/css"> .st0{fill:#ffffff;} </style> <g> <path class="st0" d="M502.08,430.441l-80.346-80.338c-3.204-3.228-5.027-6.135-6.232-9.147c-1.043-2.642-1.614-5.436-1.766-8.761 c-0.128-2.883,0.096-6.152,0.666-9.797c0.988-6.401,3.076-13.902,5.718-22.277c3.95-12.592,9.122-27.128,12.92-43.542 c3.783-16.407,6.168-34.789,4.329-54.93c-0.996-10.906-4.048-21.409-8.102-31.319c-6.112-14.857-14.536-28.421-22.735-39.72 c-4.095-5.645-8.151-10.712-11.861-15.058c-3.71-4.344-7.066-7.958-9.853-10.736c-0.892-0.892-2.281-2.386-3.975-4.256 c-2.546-2.811-5.822-6.513-9.718-10.761c-3.91-4.24-8.448-9.066-13.587-14.206c-11.821-11.821-26.846-25.361-44.971-37.832 c-18.126-12.456-39.395-23.868-63.662-31.256c-20.952-6.384-41.494-7.677-60.676-5.573c-28.814,3.156-54.548,13.78-75.7,26.059 C91.363,39.311,74.76,53.3,64.027,64.02c-7.16,7.163-15.74,16.921-24.34,28.911c-12.874,17.98-25.811,40.955-33.324,67.561 c-3.742,13.29-6.115,27.504-6.344,42.362c-0.225,14.848,1.71,30.339,6.493,46.039c7.388,24.276,18.796,45.542,31.256,63.674 c12.467,18.118,26.007,33.151,37.828,44.972c6.854,6.85,13.134,12.632,18.262,17.258c2.558,2.322,4.826,4.345,6.701,6.048 c1.875,1.686,3.361,3.075,4.26,3.975c3.706,3.702,8.902,8.448,15.318,13.66c9.621,7.806,21.928,16.624,35.809,23.996 c6.946,3.686,14.282,7.019,21.928,9.629c7.648,2.618,15.603,4.521,23.778,5.268c20.048,1.823,38.342-0.522,54.696-4.28 c12.267-2.819,23.474-6.417,33.624-9.709c7.609-2.465,14.62-4.746,20.952-6.456c4.746-1.286,9.107-2.224,13.014-2.755 c2.927-0.386,5.593-0.538,8.002-0.45c3.63,0.145,6.633,0.763,9.48,1.96c2.843,1.213,5.622,3.003,8.682,6.055L440.366,512 l71.632-71.633L502.08,430.441z M185.884,405.169c-1.631-0.57-3.261-1.196-4.899-1.871c-11.962-4.891-23.896-12.207-33.874-19.466 c-4.991-3.63-9.512-7.244-13.327-10.504c-3.818-3.26-6.958-6.183-9.126-8.352c-1.538-1.542-3.26-3.124-5.252-4.931 c-2.988-2.706-6.569-5.879-10.625-9.605c-4.047-3.718-8.568-7.966-13.346-12.744c-10.982-10.977-23.353-24.758-34.548-41.028 C49.7,280.39,39.719,261.654,33.354,240.726c-5.192-17.081-6.24-33.616-4.521-49.46c2.574-23.746,11.568-45.975,22.426-64.638 c5.412-9.316,11.275-17.731,16.937-24.959c5.661-7.212,11.126-13.258,15.675-17.804c6.063-6.063,14.768-13.749,25.417-21.378 c15.965-11.459,36.322-22.782,58.824-29.11c11.255-3.173,23.036-5.116,35.17-5.293c12.142-0.184,24.63,1.365,37.442,5.268 c20.928,6.369,39.668,16.35,55.942,27.538c16.274,11.186,30.05,23.562,41.032,34.548c6.372,6.368,11.801,12.262,16.29,17.234 c2.248,2.481,4.256,4.738,6.063,6.729c1.807,1.992,3.389,3.718,4.923,5.252c2.907,2.907,7.115,7.492,11.725,13.17 c6.914,8.513,14.768,19.538,21,31.272c2.931,5.525,5.476,11.194,7.468,16.792L185.884,405.169z M440.373,472.312l-70.428-70.428 c-5.598-5.606-11.926-9.829-18.639-12.472c-5.871-2.337-11.938-3.453-17.873-3.71c-5.2-0.225-10.319,0.185-15.37,0.972 c-8.838,1.38-17.519,3.903-26.372,6.681c-13.258,4.176-26.935,9.01-41.414,12.335c-9.432,2.176-19.177,3.71-29.356,4.119 l188.896-188.888c-0.401,10.095-1.919,19.772-4.071,29.144c-2.482,10.8-5.79,21.177-9.051,31.247 c-2.441,7.556-4.875,14.952-6.866,22.301c-1.478,5.525-2.723,11.026-3.469,16.623c-0.554,4.184-0.836,8.416-0.674,12.72 c0.224,6.425,1.461,13.026,4.144,19.362c2.658,6.329,6.738,12.319,12.062,17.619l70.428,70.429L440.373,472.312z"/> </g> </g>
</svg>