<svg width="50" height="50" viewBox="0 0 50 50" fill="none" xmlns="http://www.w3.org/2000/svg">
<g id="BoxArrowRight" clip-path="url(#clip0_518_144)">
<path id="Vector" fill-rule="evenodd" clip-rule="evenodd" d="M31.25 39.0625C31.25 39.4769 31.0854 39.8743 30.7924 40.1674C30.4993 40.4604 30.1019 40.625 29.6875 40.625H4.6875C4.2731 40.625 3.87567 40.4604 3.58265 40.1674C3.28962 39.8743 3.125 39.4769 3.125 39.0625V10.9375C3.125 10.5231 3.28962 10.1257 3.58265 9.83265C3.87567 9.53962 4.2731 9.375 4.6875 9.375H29.6875C30.1019 9.375 30.4993 9.53962 30.7924 9.83265C31.0854 10.1257 31.25 10.5231 31.25 10.9375V17.1875C31.25 17.6019 31.4146 17.9993 31.7076 18.2924C32.0007 18.5854 32.3981 18.75 32.8125 18.75C33.2269 18.75 33.6243 18.5854 33.9174 18.2924C34.2104 17.9993 34.375 17.6019 34.375 17.1875V10.9375C34.375 9.6943 33.8811 8.50201 33.0021 7.62294C32.123 6.74386 30.9307 6.25 29.6875 6.25H4.6875C3.4443 6.25 2.25201 6.74386 1.37294 7.62294C0.49386 8.50201 0 9.6943 0 10.9375L0 39.0625C0 40.3057 0.49386 41.498 1.37294 42.3771C2.25201 43.2561 3.4443 43.75 4.6875 43.75H29.6875C30.9307 43.75 32.123 43.2561 33.0021 42.3771C33.8811 41.498 34.375 40.3057 34.375 39.0625V32.8125C34.375 32.3981 34.2104 32.0007 33.9174 31.7076C33.6243 31.4146 33.2269 31.25 32.8125 31.25C32.3981 31.25 32.0007 31.4146 31.7076 31.7076C31.4146 32.0007 31.25 32.3981 31.25 32.8125V39.0625Z" fill="white"/>
<path id="Vector_2" fill-rule="evenodd" clip-rule="evenodd" d="M49.5438 26.1063C49.6893 25.9611 49.8047 25.7887 49.8835 25.5989C49.9622 25.409 50.0028 25.2055 50.0028 25C50.0028 24.7945 49.9622 24.591 49.8835 24.4012C49.8047 24.2113 49.6893 24.0389 49.5438 23.8938L40.1688 14.5188C39.8754 14.2254 39.4774 14.0605 39.0625 14.0605C38.6476 14.0605 38.2496 14.2254 37.9562 14.5188C37.6629 14.8122 37.498 15.2101 37.498 15.625C37.498 16.0399 37.6629 16.4379 37.9562 16.7313L44.6656 23.4375H17.1875C16.7731 23.4375 16.3757 23.6021 16.0826 23.8952C15.7896 24.1882 15.625 24.5856 15.625 25C15.625 25.4144 15.7896 25.8119 16.0826 26.1049C16.3757 26.3979 16.7731 26.5625 17.1875 26.5625H44.6656L37.9562 33.2688C37.6629 33.5622 37.498 33.9601 37.498 34.375C37.498 34.7899 37.6629 35.1879 37.9562 35.4813C38.2496 35.7747 38.6476 35.9395 39.0625 35.9395C39.4774 35.9395 39.8754 35.7747 40.1688 35.4813L49.5438 26.1063Z" fill="white"/>
</g>
<defs>
<clipPath id="clip0_518_144">
<rect width="50" height="50" fill="white"/>
</clipPath>
</defs>
</svg>
