<svg width="50" height="50" viewBox="0 0 50 50" fill="none" xmlns="http://www.w3.org/2000/svg">
<g id="Diagram3">
<path id="Vector" fill-rule="evenodd" clip-rule="evenodd" d="M18.75 10.9375C18.75 9.6943 19.2439 8.50201 20.1229 7.62294C21.002 6.74386 22.1943 6.25 23.4375 6.25H26.5625C27.8057 6.25 28.998 6.74386 29.8771 7.62294C30.7561 8.50201 31.25 9.6943 31.25 10.9375V14.0625C31.25 15.3057 30.7561 16.498 29.8771 17.3771C28.998 18.2561 27.8057 18.75 26.5625 18.75V21.875H43.75C44.1644 21.875 44.5618 22.0396 44.8549 22.3326C45.1479 22.6257 45.3125 23.0231 45.3125 23.4375V26.5625C45.3125 26.9769 45.1479 27.3743 44.8549 27.6674C44.5618 27.9604 44.1644 28.125 43.75 28.125C43.3356 28.125 42.9382 27.9604 42.6451 27.6674C42.3521 27.3743 42.1875 26.9769 42.1875 26.5625V25H26.5625V26.5625C26.5625 26.9769 26.3979 27.3743 26.1049 27.6674C25.8118 27.9604 25.4144 28.125 25 28.125C24.5856 28.125 24.1882 27.9604 23.8951 27.6674C23.6021 27.3743 23.4375 26.9769 23.4375 26.5625V25H7.8125V26.5625C7.8125 26.9769 7.64788 27.3743 7.35485 27.6674C7.06183 27.9604 6.6644 28.125 6.25 28.125C5.8356 28.125 5.43817 27.9604 5.14515 27.6674C4.85212 27.3743 4.6875 26.9769 4.6875 26.5625V23.4375C4.6875 23.0231 4.85212 22.6257 5.14515 22.3326C5.43817 22.0396 5.8356 21.875 6.25 21.875H23.4375V18.75C22.1943 18.75 21.002 18.2561 20.1229 17.3771C19.2439 16.498 18.75 15.3057 18.75 14.0625V10.9375ZM26.5625 15.625C26.9769 15.625 27.3743 15.4604 27.6674 15.1674C27.9604 14.8743 28.125 14.4769 28.125 14.0625V10.9375C28.125 10.5231 27.9604 10.1257 27.6674 9.83265C27.3743 9.53962 26.9769 9.375 26.5625 9.375H23.4375C23.0231 9.375 22.6257 9.53962 22.3326 9.83265C22.0396 10.1257 21.875 10.5231 21.875 10.9375V14.0625C21.875 14.4769 22.0396 14.8743 22.3326 15.1674C22.6257 15.4604 23.0231 15.625 23.4375 15.625H26.5625ZM0 35.9375C0 34.6943 0.49386 33.502 1.37294 32.6229C2.25201 31.7439 3.4443 31.25 4.6875 31.25H7.8125C9.0557 31.25 10.248 31.7439 11.1271 32.6229C12.0061 33.502 12.5 34.6943 12.5 35.9375V39.0625C12.5 40.3057 12.0061 41.498 11.1271 42.3771C10.248 43.2561 9.0557 43.75 7.8125 43.75H4.6875C3.4443 43.75 2.25201 43.2561 1.37294 42.3771C0.49386 41.498 0 40.3057 0 39.0625L0 35.9375ZM4.6875 34.375C4.2731 34.375 3.87567 34.5396 3.58265 34.8326C3.28962 35.1257 3.125 35.5231 3.125 35.9375V39.0625C3.125 39.4769 3.28962 39.8743 3.58265 40.1674C3.87567 40.4604 4.2731 40.625 4.6875 40.625H7.8125C8.2269 40.625 8.62433 40.4604 8.91735 40.1674C9.21038 39.8743 9.375 39.4769 9.375 39.0625V35.9375C9.375 35.5231 9.21038 35.1257 8.91735 34.8326C8.62433 34.5396 8.2269 34.375 7.8125 34.375H4.6875ZM18.75 35.9375C18.75 34.6943 19.2439 33.502 20.1229 32.6229C21.002 31.7439 22.1943 31.25 23.4375 31.25H26.5625C27.8057 31.25 28.998 31.7439 29.8771 32.6229C30.7561 33.502 31.25 34.6943 31.25 35.9375V39.0625C31.25 40.3057 30.7561 41.498 29.8771 42.3771C28.998 43.2561 27.8057 43.75 26.5625 43.75H23.4375C22.1943 43.75 21.002 43.2561 20.1229 42.3771C19.2439 41.498 18.75 40.3057 18.75 39.0625V35.9375ZM23.4375 34.375C23.0231 34.375 22.6257 34.5396 22.3326 34.8326C22.0396 35.1257 21.875 35.5231 21.875 35.9375V39.0625C21.875 39.4769 22.0396 39.8743 22.3326 40.1674C22.6257 40.4604 23.0231 40.625 23.4375 40.625H26.5625C26.9769 40.625 27.3743 40.4604 27.6674 40.1674C27.9604 39.8743 28.125 39.4769 28.125 39.0625V35.9375C28.125 35.5231 27.9604 35.1257 27.6674 34.8326C27.3743 34.5396 26.9769 34.375 26.5625 34.375H23.4375ZM37.5 35.9375C37.5 34.6943 37.9939 33.502 38.8729 32.6229C39.752 31.7439 40.9443 31.25 42.1875 31.25H45.3125C46.5557 31.25 47.748 31.7439 48.6271 32.6229C49.5061 33.502 50 34.6943 50 35.9375V39.0625C50 40.3057 49.5061 41.498 48.6271 42.3771C47.748 43.2561 46.5557 43.75 45.3125 43.75H42.1875C40.9443 43.75 39.752 43.2561 38.8729 42.3771C37.9939 41.498 37.5 40.3057 37.5 39.0625V35.9375ZM42.1875 34.375C41.7731 34.375 41.3757 34.5396 41.0826 34.8326C40.7896 35.1257 40.625 35.5231 40.625 35.9375V39.0625C40.625 39.4769 40.7896 39.8743 41.0826 40.1674C41.3757 40.4604 41.7731 40.625 42.1875 40.625H45.3125C45.7269 40.625 46.1243 40.4604 46.4174 40.1674C46.7104 39.8743 46.875 39.4769 46.875 39.0625V35.9375C46.875 35.5231 46.7104 35.1257 46.4174 34.8326C46.1243 34.5396 45.7269 34.375 45.3125 34.375H42.1875Z" fill="white"/>
</g>
</svg>
