<svg width="50" height="50" viewBox="0 0 50 50" fill="none" xmlns="http://www.w3.org/2000/svg">
<g id="PeopleFill">
<path id="Vector" d="M21.875 43.75C21.875 43.75 18.75 43.75 18.75 40.625C18.75 37.5 21.875 28.125 34.375 28.125C46.875 28.125 50 37.5 50 40.625C50 43.75 46.875 43.75 46.875 43.75H21.875ZM34.375 25C36.8614 25 39.246 24.0123 41.0041 22.2541C42.7623 20.496 43.75 18.1114 43.75 15.625C43.75 13.1386 42.7623 10.754 41.0041 8.99587C39.246 7.23772 36.8614 6.25 34.375 6.25C31.8886 6.25 29.504 7.23772 27.7459 8.99587C25.9877 10.754 25 13.1386 25 15.625C25 18.1114 25.9877 20.496 27.7459 22.2541C29.504 24.0123 31.8886 25 34.375 25ZM16.3 43.75C15.837 42.7743 15.6059 41.7048 15.625 40.625C15.625 36.3906 17.75 32.0312 21.675 29C19.7162 28.3951 17.6749 28.0999 15.625 28.125C3.125 28.125 0 37.5 0 40.625C0 43.75 3.125 43.75 3.125 43.75H16.3ZM14.0625 25C16.1345 25 18.1216 24.1769 19.5868 22.7118C21.0519 21.2466 21.875 19.2595 21.875 17.1875C21.875 15.1155 21.0519 13.1284 19.5868 11.6632C18.1216 10.1981 16.1345 9.375 14.0625 9.375C11.9905 9.375 10.0034 10.1981 8.53823 11.6632C7.0731 13.1284 6.25 15.1155 6.25 17.1875C6.25 19.2595 7.0731 21.2466 8.53823 22.7118C10.0034 24.1769 11.9905 25 14.0625 25Z" fill="white"/>
</g>
</svg>
