<svg width="50" height="50" viewBox="0 0 50 50" fill="none" xmlns="http://www.w3.org/2000/svg">
<g id="PersonFill">
<path id="Vector" d="M9.375 43.75C9.375 43.75 6.25 43.75 6.25 40.625C6.25 37.5 9.375 28.125 25 28.125C40.625 28.125 43.75 37.5 43.75 40.625C43.75 43.75 40.625 43.75 40.625 43.75H9.375ZM25 25C27.4864 25 29.871 24.0123 31.6291 22.2541C33.3873 20.496 34.375 18.1114 34.375 15.625C34.375 13.1386 33.3873 10.754 31.6291 8.99587C29.871 7.23772 27.4864 6.25 25 6.25C22.5136 6.25 20.129 7.23772 18.3709 8.99587C16.6127 10.754 15.625 13.1386 15.625 15.625C15.625 18.1114 16.6127 20.496 18.3709 22.2541C20.129 24.0123 22.5136 25 25 25Z" fill="white"/>
</g>
</svg>
