<!DOCTYPE svg PUBLIC "-//W3C//DTD SVG 1.1//EN" "http://www.w3.org/Graphics/SVG/1.1/DTD/svg11.dtd">

<!-- Uploaded to: SVG Repo, www.svgrepo.com, Transformed by: SVG Repo Mixer Tools -->
<svg version="1.1" id="Uploaded to svgrepo.com" xmlns="http://www.w3.org/2000/svg" xmlns:xlink="http://www.w3.org/1999/xlink" width="800px" height="800px" viewBox="0 0 32 32" xml:space="preserve" fill="#ffffff" transform="matrix(-1, 0, 0, 1, 0, 0)rotate(45)">

<g id="SVGRepo_bgCarrier" stroke-width="0"/>

<g id="SVGRepo_tracerCarrier" stroke-linecap="round" stroke-linejoin="round"/>

<g id="SVGRepo_iconCarrier"> <style type="text/css"> .open_een{fill:#ffffff;} </style> <g> <g> <path class="open_een" d="M16.333,2.005c-2.866-0.072-5.528,0.935-7.52,2.869C6.677,6.948,5.5,9.834,5.5,13 c0,1.769,0.256,3.344,0.762,4.682c0.097,0.258,0.385,0.388,0.645,0.291c0.258-0.098,0.389-0.386,0.291-0.645 C6.734,16.104,6.5,14.647,6.5,13c0-2.893,1.069-5.524,3.01-7.409c1.797-1.744,4.199-2.658,6.794-2.586 c5.185,0.152,9.225,4.583,9.196,10.087c-0.016,2.928-0.743,5.138-2.225,6.758C23.189,19.944,23.052,20,22.907,20H8.658 c-0.203,0-0.386,0.123-0.463,0.311c-0.077,0.188-0.032,0.404,0.113,0.546c1.399,1.369,3.146,2.341,5.051,2.81 c0.225,0.056,0.375,0.293,0.341,0.542l-0.544,4.092c-0.058,0.429,0.072,0.861,0.357,1.187C13.799,29.813,14.21,30,14.643,30h2.715 c0.433,0,0.844-0.187,1.129-0.512c0.285-0.326,0.415-0.758,0.358-1.187l-0.546-4.095c-0.034-0.25,0.121-0.484,0.358-0.543 c0.521-0.129,1.036-0.297,1.533-0.502c0.255-0.105,0.377-0.397,0.272-0.652c-0.105-0.255-0.397-0.376-0.653-0.272 c-0.451,0.186-0.92,0.339-1.393,0.456c-0.733,0.182-1.211,0.89-1.11,1.646l0.547,4.096c0.019,0.145-0.023,0.286-0.12,0.396 c-0.096,0.11-0.229,0.17-0.376,0.17h-2.715c-0.146,0-0.28-0.061-0.376-0.17c-0.097-0.11-0.139-0.25-0.119-0.396l0.544-4.092 c0.103-0.759-0.367-1.467-1.094-1.645c-1.302-0.321-2.522-0.9-3.589-1.697h12.898c0.427,0,0.831-0.174,1.106-0.476 c1.633-1.785,2.47-4.284,2.486-7.427C26.53,7.046,22.064,2.174,16.333,2.005z"/> </g> <g> <path class="open_een" d="M16.333,2.005c-2.866-0.072-5.528,0.935-7.52,2.869C6.677,6.948,5.5,9.834,5.5,13 c0,1.769,0.256,3.344,0.762,4.682c0.097,0.258,0.385,0.388,0.645,0.291c0.258-0.098,0.389-0.386,0.291-0.645 C6.734,16.104,6.5,14.647,6.5,13c0-2.893,1.069-5.524,3.01-7.409c1.797-1.744,4.199-2.658,6.794-2.586 c5.185,0.152,9.225,4.583,9.196,10.087c-0.016,2.928-0.743,5.138-2.225,6.758C23.189,19.944,23.052,20,22.907,20H8.658 c-0.203,0-0.386,0.123-0.463,0.311c-0.077,0.188-0.032,0.404,0.113,0.546c1.399,1.369,3.146,2.341,5.051,2.81 c0.225,0.056,0.375,0.293,0.341,0.542l-0.544,4.092c-0.058,0.429,0.072,0.861,0.357,1.187C13.799,29.813,14.21,30,14.643,30h2.715 c0.433,0,0.844-0.187,1.129-0.512c0.285-0.326,0.415-0.758,0.358-1.187l-0.546-4.095c-0.034-0.25,0.121-0.484,0.358-0.543 c0.521-0.129,1.036-0.297,1.533-0.502c0.255-0.105,0.377-0.397,0.272-0.652c-0.105-0.255-0.397-0.376-0.653-0.272 c-0.451,0.186-0.92,0.339-1.393,0.456c-0.733,0.182-1.211,0.89-1.11,1.646l0.547,4.096c0.019,0.145-0.023,0.286-0.12,0.396 c-0.096,0.11-0.229,0.17-0.376,0.17h-2.715c-0.146,0-0.28-0.061-0.376-0.17c-0.097-0.11-0.139-0.25-0.119-0.396l0.544-4.092 c0.103-0.759-0.367-1.467-1.094-1.645c-1.302-0.321-2.522-0.9-3.589-1.697h12.898c0.427,0,0.831-0.174,1.106-0.476 c1.633-1.785,2.47-4.284,2.486-7.427C26.53,7.046,22.064,2.174,16.333,2.005z"/> </g> </g> </g>

</svg>
