<svg width="50" height="50" viewBox="0 0 50 50" fill="none" xmlns="http://www.w3.org/2000/svg">
<g id="Search" clip-path="url(#clip0_561_352)">
<path id="Vector" d="M36.6936 32.325C39.7195 28.1959 41.0748 23.0765 40.4883 17.9911C39.9018 12.9057 37.4168 8.22919 33.5304 4.89729C29.644 1.56539 24.6428 -0.17623 19.5275 0.0208736C14.4121 0.217977 9.55983 2.33927 5.94134 5.96034C2.32285 9.58142 0.205034 14.4352 0.0115907 19.5507C-0.181852 24.6662 1.56334 29.6661 4.89803 33.5501C8.23271 37.4342 12.911 39.9159 17.9968 40.4987C23.0827 41.0816 28.2011 39.7226 32.328 36.6938H32.3249C32.4165 36.8188 32.5186 36.9385 32.6311 37.0531L44.6624 49.0844C45.2483 49.6708 46.0432 50.0003 46.8722 50.0006C47.7012 50.0009 48.4963 49.6719 49.0827 49.0859C49.6691 48.5 49.9987 47.7051 49.9989 46.8761C49.9992 46.0471 49.6702 45.252 49.0842 44.6656L37.053 32.6344C36.9413 32.5212 36.8212 32.4199 36.6936 32.325ZM37.4999 20.3125C37.4999 22.5696 37.0553 24.8046 36.1916 26.8899C35.3278 28.9752 34.0618 30.8699 32.4658 32.4659C30.8698 34.0619 28.975 35.3279 26.8897 36.1917C24.8045 37.0554 22.5695 37.5 20.3124 37.5C18.0553 37.5 15.8203 37.0554 13.735 36.1917C11.6497 35.3279 9.75498 34.0619 8.15898 32.4659C6.56297 30.8699 5.29695 28.9752 4.4332 26.8899C3.56944 24.8046 3.12488 22.5696 3.12488 20.3125C3.12488 15.7541 4.9357 11.3824 8.15898 8.15911C11.3823 4.93583 15.754 3.12501 20.3124 3.12501C24.8708 3.12501 29.2425 4.93583 32.4658 8.15911C35.6891 11.3824 37.4999 15.7541 37.4999 20.3125Z" fill="white"/>
</g>
<defs>
<clipPath id="clip0_561_352">
<rect width="50" height="50" fill="white"/>
</clipPath>
</defs>
</svg>
