<svg width="50" height="50" viewBox="0 0 50 50" fill="none" xmlns="http://www.w3.org/2000/svg">
<g id="GraphUp" clip-path="url(#clip0_561_360)">
<path id="Vector" fill-rule="evenodd" clip-rule="evenodd" d="M0 0H3.125V46.875H50V50H0V0ZM46.3031 9.72812C46.462 9.85815 46.5938 10.0182 46.6908 10.1992C46.7878 10.3802 46.8482 10.5785 46.8685 10.7828C46.8888 10.9871 46.8686 11.1934 46.8092 11.3899C46.7497 11.5865 46.6521 11.7694 46.5219 11.9281L32.4594 29.1156C32.3212 29.2843 32.1492 29.4222 31.9544 29.5205C31.7597 29.6187 31.5466 29.6751 31.3288 29.6859C31.1109 29.6968 30.8932 29.662 30.6897 29.5837C30.4861 29.5054 30.3012 29.3853 30.1469 29.2313L22.0625 21.1469L10.6375 36.8563C10.3876 37.1741 10.0242 37.3826 9.6237 37.4381C9.22322 37.4936 8.81682 37.3916 8.48991 37.1537C8.163 36.9158 7.94104 36.5605 7.87066 36.1624C7.80028 35.7642 7.88696 35.3543 8.1125 35.0187L20.6125 17.8312C20.7452 17.6485 20.9159 17.4966 21.1129 17.3862C21.3099 17.2758 21.5285 17.2094 21.7537 17.1915C21.9788 17.1737 22.2051 17.2049 22.4171 17.283C22.629 17.361 22.8215 17.4841 22.9813 17.6437L31.1344 25.8L44.1031 9.94688C44.2332 9.78797 44.3932 9.65625 44.5742 9.55924C44.7552 9.46223 44.9535 9.40185 45.1578 9.38153C45.3621 9.36122 45.5684 9.38137 45.7649 9.44084C45.9615 9.50031 46.1444 9.59793 46.3031 9.72812Z" fill="white"/>
</g>
<defs>
<clipPath id="clip0_561_360">
<rect width="50" height="50" fill="white"/>
</clipPath>
</defs>
</svg>
