<svg width="40" height="40" viewBox="0 0 40 40" fill="none" xmlns="http://www.w3.org/2000/svg">
<g id="XSquare" clip-path="url(#clip0_536_135)">
<path id="Vector" d="M35 2.5C35.663 2.5 36.2989 2.76339 36.7678 3.23223C37.2366 3.70107 37.5 4.33696 37.5 5V35C37.5 35.663 37.2366 36.2989 36.7678 36.7678C36.2989 37.2366 35.663 37.5 35 37.5H5C4.33696 37.5 3.70107 37.2366 3.23223 36.7678C2.76339 36.2989 2.5 35.663 2.5 35V5C2.5 4.33696 2.76339 3.70107 3.23223 3.23223C3.70107 2.76339 4.33696 2.5 5 2.5H35ZM5 0C3.67392 0 2.40215 0.526784 1.46447 1.46447C0.526784 2.40215 0 3.67392 0 5L0 35C0 36.3261 0.526784 37.5979 1.46447 38.5355C2.40215 39.4732 3.67392 40 5 40H35C36.3261 40 37.5979 39.4732 38.5355 38.5355C39.4732 37.5979 40 36.3261 40 35V5C40 3.67392 39.4732 2.40215 38.5355 1.46447C37.5979 0.526784 36.3261 0 35 0L5 0Z" fill="white"/>
<path id="Vector_2" d="M11.6153 11.6153C11.7314 11.4989 11.8693 11.4065 12.0212 11.3435C12.1731 11.2805 12.3359 11.248 12.5003 11.248C12.6647 11.248 12.8275 11.2805 12.9794 11.3435C13.1312 11.4065 13.2692 11.4989 13.3853 11.6153L20.0003 18.2328L26.6153 11.6153C26.7315 11.4991 26.8695 11.4069 27.0213 11.344C27.1732 11.2811 27.3359 11.2487 27.5003 11.2487C27.6646 11.2487 27.8274 11.2811 27.9792 11.344C28.1311 11.4069 28.2691 11.4991 28.3853 11.6153C28.5015 11.7315 28.5937 11.8695 28.6566 12.0213C28.7195 12.1732 28.7519 12.3359 28.7519 12.5003C28.7519 12.6646 28.7195 12.8274 28.6566 12.9792C28.5937 13.1311 28.5015 13.2691 28.3853 13.3853L21.7678 20.0003L28.3853 26.6153C28.5015 26.7315 28.5937 26.8695 28.6566 27.0213C28.7195 27.1732 28.7519 27.3359 28.7519 27.5003C28.7519 27.6646 28.7195 27.8274 28.6566 27.9792C28.5937 28.1311 28.5015 28.2691 28.3853 28.3853C28.2691 28.5015 28.1311 28.5937 27.9792 28.6566C27.8274 28.7195 27.6646 28.7519 27.5003 28.7519C27.3359 28.7519 27.1732 28.7195 27.0213 28.6566C26.8695 28.5937 26.7315 28.5015 26.6153 28.3853L20.0003 21.7678L13.3853 28.3853C13.2691 28.5015 13.1311 28.5937 12.9792 28.6566C12.8274 28.7195 12.6646 28.7519 12.5003 28.7519C12.3359 28.7519 12.1732 28.7195 12.0213 28.6566C11.8695 28.5937 11.7315 28.5015 11.6153 28.3853C11.4991 28.2691 11.4069 28.1311 11.344 27.9792C11.2811 27.8274 11.2487 27.6646 11.2487 27.5003C11.2487 27.3359 11.2811 27.1732 11.344 27.0213C11.4069 26.8695 11.4991 26.7315 11.6153 26.6153L18.2328 20.0003L11.6153 13.3853C11.4989 13.2692 11.4065 13.1312 11.3435 12.9794C11.2805 12.8275 11.248 12.6647 11.248 12.5003C11.248 12.3359 11.2805 12.1731 11.3435 12.0212C11.4065 11.8693 11.4989 11.7314 11.6153 11.6153Z" fill="white"/>
</g>
<defs>
<clipPath id="clip0_536_135">
<rect width="40" height="40" fill="white"/>
</clipPath>
</defs>
</svg>
